<svg xmlns="http://www.w3.org/2000/svg" id="canvas" viewBox="411.527 531.072 1593.062 268.912">
  <path
    d="M 451.40,540.98 C 451.17 542.72, 451.92 544.35, 452.43 549.36 C 452.95 554.38, 453.49 557.32, 454.00 566.05 C 454.51 574.78, 454.72 580.82, 454.99 593.01 C 455.26 605.19, 455.39 612.56, 455.35 626.99 C 455.31 641.42, 455.15 650.05, 454.80 665.15 C 454.44 680.25, 453.93 688.77, 453.56 702.50 C 453.19 716.23, 453.22 722.92, 452.96 733.79 C 452.71 744.66, 452.63 749.85, 452.29 756.86 C 451.95 763.88, 451.65 766.27, 451.26 768.88 C 450.87 771.49, 450.48 769.61, 450.34 769.90 C 450.20 770.19, 449.94 770.46, 450.58 770.36 C 451.21 770.25, 452.80 772.04, 453.53 769.36 C 454.26 766.68, 454.05 764.04, 454.23 756.93 C 454.40 749.83, 454.29 744.70, 454.41 733.82 C 454.53 722.94, 454.49 716.26, 454.82 702.53 C 455.14 688.80, 455.65 680.29, 456.02 665.18 C 456.40 650.07, 456.57 641.43, 456.69 626.99 C 456.82 612.56, 456.75 605.19, 456.65 592.98 C 456.54 580.77, 456.47 574.72, 456.17 565.95 C 455.86 557.17, 455.64 554.15, 455.13 549.09 C 454.61 544.03, 454.34 542.26, 453.60 540.64 C 452.85 539.02, 451.63 539.23, 451.40 540.98"
    style="stroke: white; fill: white;" />
  <path
    d="M 415.84,559.02 C 416.79 559.17, 417.38 559.05, 419.32 558.09 C 421.25 557.13, 422.14 556.15, 425.50 554.24 C 428.86 552.33, 430.85 550.63, 436.10 548.54 C 441.34 546.46, 444.80 545.22, 451.73 543.81 C 458.67 542.41, 463.18 541.70, 470.77 541.51 C 478.35 541.31, 482.66 541.05, 489.66 542.83 C 496.66 544.61, 500.46 546.31, 505.75 550.41 C 511.03 554.51, 513.44 557.34, 516.07 563.33 C 518.70 569.33, 519.18 572.91, 518.90 580.38 C 518.62 587.85, 517.24 592.66, 514.66 600.69 C 512.08 608.73, 509.93 613.44, 505.99 620.54 C 502.06 627.64, 499.15 631.09, 494.99 636.20 C 490.83 641.32, 487.81 643.04, 485.17 646.12 C 482.53 649.20, 481.70 650.24, 481.79 651.61 C 481.88 652.99, 482.99 653.22, 485.62 652.99 C 488.26 652.76, 490.09 651.23, 494.97 650.46 C 499.86 649.69, 503.52 649.05, 510.05 649.13 C 516.57 649.22, 520.58 649.27, 527.58 650.88 C 534.58 652.49, 538.81 653.67, 545.06 657.18 C 551.30 660.69, 554.57 663.18, 558.80 668.43 C 563.04 673.69, 564.71 676.71, 566.24 683.47 C 567.78 690.23, 567.79 694.53, 566.49 702.23 C 565.20 709.93, 563.57 714.38, 559.77 721.98 C 555.97 729.57, 553.12 733.69, 547.47 740.21 C 541.82 746.72, 538.07 749.96, 531.52 754.54 C 524.96 759.11, 521.26 760.77, 514.69 763.08 C 508.13 765.39, 504.54 766.03, 498.71 766.08 C 492.89 766.13, 489.96 765.24, 485.58 763.33 C 481.20 761.42, 479.35 758.75, 476.80 756.52 C 474.25 754.29, 473.89 753.62, 472.85 752.18 C 471.80 750.74, 472.11 749.84, 471.57 749.32 C 471.03 748.80, 470.45 748.68, 470.14 749.55 C 469.83 750.43, 469.20 751.73, 470.02 753.72 C 470.84 755.70, 471.33 757.00, 474.22 759.49 C 477.11 761.98, 479.54 764.33, 484.45 766.15 C 489.36 767.96, 492.57 768.75, 498.76 768.55 C 504.96 768.36, 508.65 767.62, 515.43 765.15 C 522.22 762.68, 525.98 760.94, 532.69 756.21 C 539.40 751.48, 543.19 748.17, 548.97 741.51 C 554.75 734.85, 557.66 730.67, 561.58 722.89 C 565.50 715.10, 567.21 710.56, 568.56 702.58 C 569.92 694.60, 569.96 690.10, 568.36 682.99 C 566.76 675.88, 564.99 672.59, 560.56 667.02 C 556.13 661.46, 552.69 658.87, 546.22 655.14 C 539.74 651.42, 535.40 650.23, 528.19 648.39 C 520.97 646.56, 516.91 646.34, 510.15 645.97 C 503.40 645.60, 499.52 645.90, 494.42 646.55 C 489.31 647.21, 486.93 648.15, 484.63 649.23 C 482.32 650.31, 482.31 652.14, 482.89 651.96 C 483.47 651.77, 484.72 651.14, 487.53 648.29 C 490.34 645.45, 492.88 643.09, 496.95 637.75 C 501.03 632.41, 503.97 628.88, 507.91 621.59 C 511.86 614.31, 514.06 609.57, 516.68 601.34 C 519.31 593.11, 520.76 588.24, 521.04 580.46 C 521.32 572.68, 520.88 568.81, 518.09 562.45 C 515.31 556.08, 512.70 553.00, 507.13 548.64 C 501.55 544.28, 497.51 542.54, 490.23 540.63 C 482.95 538.72, 478.52 539.01, 470.72 539.10 C 462.92 539.20, 458.39 539.88, 451.23 541.12 C 444.07 542.35, 440.51 543.49, 434.93 545.27 C 429.34 547.05, 426.95 548.27, 423.30 550.03 C 419.65 551.78, 418.41 552.59, 416.67 554.05 C 414.92 555.51, 414.73 556.32, 414.56 557.32 C 414.39 558.31, 414.89 558.86, 415.84 559.02"
    style="stroke: white; fill: white;" />
  <path
    d="M 571.19,698.93 C 571.25 701.08, 572.33 703.65, 573.80 709.03 C 575.27 714.41, 576.48 718.37, 578.55 725.83 C 580.63 733.28, 582.23 738.42, 584.19 746.32 C 586.15 754.21, 587.04 758.81, 588.36 765.30 C 589.68 771.79, 589.83 775.39, 590.78 778.78 C 591.73 782.17, 592.67 782.88, 593.11 782.24 C 593.55 781.61, 593.56 780.25, 592.98 775.60 C 592.39 770.95, 591.52 766.70, 590.19 758.99 C 588.85 751.28, 587.54 745.37, 586.28 737.04 C 585.03 728.72, 584.31 723.91, 583.89 717.36 C 583.48 710.82, 583.68 707.82, 584.22 704.33 C 584.75 700.84, 584.84 700.46, 586.56 699.91 C 588.28 699.37, 589.36 700.63, 592.84 701.60 C 596.32 702.57, 598.85 703.72, 603.97 704.77 C 609.10 705.82, 612.15 706.61, 618.45 706.84 C 624.75 707.08, 628.71 707.23, 635.48 705.94 C 642.25 704.65, 646.21 703.34, 652.28 700.40 C 658.36 697.47, 661.18 695.22, 665.84 691.27 C 670.50 687.32, 672.68 684.72, 675.59 680.67 C 678.49 676.62, 679.83 674.46, 680.36 671.00 C 680.88 667.55, 680.10 665.30, 678.21 663.39 C 676.33 661.49, 674.04 660.46, 670.94 661.47 C 667.84 662.49, 665.83 664.33, 662.72 668.47 C 659.61 672.60, 657.99 675.66, 655.39 682.17 C 652.78 688.68, 651.26 692.95, 649.69 701.00 C 648.13 709.05, 647.27 714.13, 647.57 722.42 C 647.86 730.70, 648.80 735.48, 651.16 742.44 C 653.53 749.39, 655.39 752.72, 659.40 757.19 C 663.41 761.66, 666.16 763.34, 671.20 764.80 C 676.24 766.26, 679.01 766.22, 684.59 764.49 C 690.17 762.75, 693.46 760.93, 699.11 756.13 C 704.75 751.34, 707.83 747.47, 712.83 740.51 C 717.84 733.56, 720.05 728.98, 724.13 721.35 C 728.21 713.72, 730.32 708.45, 733.22 702.37 C 736.12 696.28, 737.65 693.43, 738.61 690.92 C 739.57 688.42, 738.31 688.04, 738.01 689.85 C 737.71 691.66, 737.38 694.54, 737.11 699.97 C 736.84 705.40, 736.70 710.00, 736.67 716.99 C 736.64 723.98, 736.52 728.74, 736.97 734.94 C 737.42 741.15, 737.28 744.40, 738.93 748.03 C 740.57 751.66, 742.28 753.11, 745.20 753.11 C 748.12 753.10, 750.18 751.66, 753.52 748.02 C 756.87 744.38, 758.65 740.81, 761.91 734.92 C 765.17 729.03, 766.94 724.20, 769.82 718.57 C 772.71 712.94, 774.60 709.77, 776.34 706.77 C 778.08 703.76, 777.98 702.86, 778.54 703.55 C 779.11 704.25, 778.91 705.76, 779.18 710.23 C 779.44 714.69, 779.38 719.26, 779.86 725.88 C 780.33 732.49, 780.45 737.05, 781.54 743.31 C 782.64 749.57, 783.29 752.66, 785.32 757.19 C 787.36 761.72, 788.56 764.61, 791.71 765.95 C 794.85 767.30, 799.28 764.78, 801.06 763.91 C 802.84 763.04, 802.21 761.80, 800.60 761.60 C 799.00 761.40, 795.52 764.05, 793.04 762.92 C 790.57 761.78, 789.88 759.97, 788.21 755.94 C 786.55 751.91, 785.69 748.84, 784.71 742.78 C 783.72 736.72, 783.72 732.23, 783.30 725.65 C 782.89 719.06, 783.37 714.56, 782.63 709.85 C 781.88 705.14, 781.41 703.11, 779.59 702.09 C 777.77 701.07, 776.09 701.76, 773.53 704.75 C 770.97 707.74, 769.71 711.32, 766.80 717.03 C 763.89 722.74, 762.16 727.56, 758.99 733.31 C 755.83 739.06, 753.76 742.41, 750.98 745.80 C 748.19 749.18, 746.86 750.04, 745.07 750.25 C 743.27 750.45, 742.98 749.93, 742.00 746.83 C 741.02 743.73, 740.54 740.69, 740.17 734.73 C 739.79 728.76, 740.04 723.95, 740.11 717.02 C 740.19 710.08, 740.51 705.57, 740.55 700.07 C 740.59 694.56, 741.22 691.63, 740.31 689.50 C 739.40 687.36, 737.90 687.04, 736.00 689.39 C 734.11 691.75, 733.60 695.08, 730.83 701.27 C 728.06 707.45, 726.13 712.73, 722.16 720.31 C 718.20 727.90, 715.95 732.42, 711.03 739.21 C 706.10 746.00, 702.98 749.72, 697.54 754.28 C 692.10 758.84, 688.94 760.40, 683.82 762.00 C 678.70 763.61, 676.44 763.58, 671.92 762.28 C 667.41 760.99, 664.95 759.66, 661.23 755.54 C 657.51 751.42, 655.60 748.34, 653.32 741.70 C 651.03 735.06, 650.05 730.39, 649.80 722.34 C 649.55 714.30, 650.40 709.29, 652.05 701.48 C 653.71 693.67, 655.35 689.45, 658.07 683.30 C 660.78 677.15, 662.72 674.28, 665.62 670.73 C 668.52 667.18, 670.51 666.59, 672.57 665.55 C 674.62 664.51, 675.13 664.60, 675.91 665.54 C 676.68 666.49, 677.04 667.62, 676.44 670.28 C 675.85 672.94, 675.41 675.06, 672.92 678.84 C 670.44 682.61, 668.38 685.33, 664.03 689.17 C 659.67 693.01, 656.95 695.22, 651.14 698.04 C 645.33 700.86, 641.49 702.12, 634.99 703.27 C 628.48 704.42, 624.65 704.20, 618.61 703.79 C 612.56 703.37, 609.74 702.40, 604.77 701.20 C 599.79 700.01, 597.60 698.61, 593.74 697.83 C 589.89 697.04, 587.96 696.08, 585.47 697.27 C 582.98 698.46, 582.13 699.74, 581.30 703.80 C 580.46 707.85, 580.81 710.82, 581.29 717.54 C 581.77 724.26, 582.51 729.03, 583.71 737.42 C 584.90 745.81, 586.05 751.72, 587.27 759.47 C 588.48 767.22, 588.74 771.56, 589.78 776.16 C 590.82 780.76, 591.65 782.07, 592.48 782.48 C 593.30 782.89, 594.19 781.77, 593.89 778.22 C 593.60 774.67, 592.47 771.23, 591.01 764.73 C 589.56 758.23, 588.60 753.63, 586.61 745.71 C 584.62 737.79, 583.10 732.62, 581.07 725.13 C 579.04 717.65, 577.97 713.66, 576.46 708.29 C 574.95 702.92, 574.56 700.16, 573.50 698.29 C 572.45 696.42, 571.13 696.79, 571.19 698.93"
    style="stroke: white; fill: white;" />
  <path
    d="M 852.01,535.77 C 851.60 538.02, 852.21 540.38, 852.17 546.99 C 852.13 553.60, 852.16 557.78, 851.81 568.82 C 851.46 579.86, 851.09 587.57, 850.43 602.18 C 849.77 616.79, 849.48 625.48, 848.51 641.89 C 847.54 658.29, 846.62 668.16, 845.55 684.20 C 844.48 700.25, 844.03 708.67, 843.16 722.11 C 842.30 735.54, 841.38 745.51, 841.21 751.38 C 841.05 757.25, 841.73 757.29, 842.34 751.45 C 842.95 745.61, 843.40 735.61, 844.26 722.18 C 845.13 708.74, 845.59 700.32, 846.68 684.28 C 847.76 668.24, 848.66 658.36, 849.68 641.96 C 850.71 625.55, 851.03 616.86, 851.81 602.25 C 852.59 587.63, 853.07 579.93, 853.56 568.89 C 854.06 557.84, 854.15 553.65, 854.29 547.02 C 854.42 540.40, 854.71 538.00, 854.25 535.75 C 853.80 533.50, 852.43 533.52, 852.01 535.77"
    style="stroke: white; fill: white;" />
  <path
    d="M 825.59,709.94 C 826.36 708.43, 826.04 705.86, 826.88 702.25 C 827.71 698.64, 827.90 695.72, 829.77 691.88 C 831.64 688.03, 832.73 685.63, 836.21 683.03 C 839.70 680.43, 841.93 680.17, 847.21 678.87 C 852.48 677.57, 855.98 677.12, 862.59 676.53 C 869.20 675.94, 872.83 675.75, 880.26 675.92 C 887.70 676.09, 892.22 676.68, 899.76 677.37 C 907.30 678.06, 911.46 678.48, 917.96 679.38 C 924.46 680.28, 927.82 681.03, 932.26 681.86 C 936.71 682.70, 938.69 683.25, 940.19 683.55 C 941.69 683.85, 941.55 682.84, 939.78 683.37 C 938.00 683.89, 936.03 684.41, 931.31 686.16 C 926.59 687.92, 922.77 689.16, 916.18 692.14 C 909.59 695.12, 905.08 696.95, 898.36 701.07 C 891.64 705.19, 887.71 707.73, 882.58 712.73 C 877.45 717.74, 874.96 720.83, 872.69 726.10 C 870.43 731.38, 870.08 734.42, 871.24 739.11 C 872.40 743.79, 874.30 746.37, 878.49 749.53 C 882.68 752.68, 885.88 753.94, 892.18 754.90 C 898.48 755.85, 902.74 755.69, 909.99 754.28 C 917.24 752.87, 921.83 751.45, 928.43 747.85 C 935.03 744.25, 938.32 741.68, 943.01 736.27 C 947.71 730.87, 949.60 727.21, 951.90 720.83 C 954.20 714.45, 954.64 710.72, 954.51 704.37 C 954.39 698.03, 953.60 694.32, 951.28 689.10 C 948.96 683.88, 946.70 681.30, 942.91 678.27 C 939.12 675.25, 936.36 674.63, 932.35 673.98 C 928.34 673.33, 925.64 673.47, 922.87 675.01 C 920.10 676.54, 918.66 678.78, 918.48 681.66 C 918.31 684.54, 919.04 687.11, 922.00 689.38 C 924.96 691.65, 927.75 692.26, 933.27 693.01 C 938.79 693.76, 942.24 693.76, 949.60 693.13 C 956.96 692.50, 961.89 691.36, 970.08 689.85 C 978.26 688.34, 983.14 686.91, 990.53 685.59 C 997.93 684.27, 1001.62 683.52, 1007.06 683.27 C 1012.49 683.01, 1014.89 682.99, 1017.71 684.30 C 1020.53 685.61, 1020.95 686.25, 1021.15 689.82 C 1021.34 693.39, 1020.46 696.24, 1018.70 702.16 C 1016.95 708.08, 1014.87 712.69, 1012.38 719.41 C 1009.88 726.13, 1007.82 730.33, 1006.21 735.76 C 1004.61 741.19, 1003.54 744.03, 1004.36 746.54 C 1005.17 749.04, 1006.94 749.96, 1010.30 748.28 C 1013.65 746.60, 1015.96 743.55, 1021.13 738.14 C 1026.30 732.72, 1029.77 728.07, 1036.13 721.22 C 1042.48 714.36, 1046.52 709.94, 1052.90 703.86 C 1059.29 697.77, 1062.88 694.59, 1068.06 690.79 C 1073.24 686.99, 1075.54 685.55, 1078.81 684.85 C 1082.08 684.15, 1082.73 684.82, 1084.43 687.30 C 1086.13 689.77, 1086.70 691.98, 1087.29 697.22 C 1087.89 702.45, 1087.57 706.44, 1087.40 713.47 C 1087.24 720.49, 1086.65 725.31, 1086.47 732.36 C 1086.30 739.40, 1086.19 743.15, 1086.54 748.69 C 1086.89 754.23, 1087.16 756.75, 1088.20 760.06 C 1089.25 763.38, 1090.78 764.37, 1091.78 765.27 C 1092.77 766.17, 1093.28 765.75, 1093.17 764.54 C 1093.06 763.33, 1091.98 762.45, 1091.25 759.23 C 1090.52 756.02, 1089.93 753.84, 1089.53 748.48 C 1089.13 743.12, 1089.10 739.41, 1089.26 732.43 C 1089.42 725.44, 1090.11 720.66, 1090.33 713.54 C 1090.55 706.43, 1091.04 702.47, 1090.35 696.85 C 1089.65 691.24, 1089.24 688.40, 1086.83 685.47 C 1084.42 682.54, 1082.34 681.50, 1078.30 682.18 C 1074.27 682.87, 1072.04 684.88, 1066.66 688.90 C 1061.28 692.92, 1057.85 696.14, 1051.40 702.28 C 1044.94 708.41, 1040.81 712.78, 1034.37 719.57 C 1027.93 726.36, 1024.31 731.01, 1019.17 736.24 C 1014.04 741.48, 1011.18 743.77, 1008.70 745.75 C 1006.23 747.73, 1006.68 747.95, 1006.81 746.14 C 1006.93 744.34, 1007.63 741.86, 1009.32 736.73 C 1011.01 731.59, 1012.79 727.21, 1015.25 720.46 C 1017.70 713.72, 1019.81 709.19, 1021.59 703.00 C 1023.38 696.82, 1024.69 693.81, 1024.17 689.54 C 1023.65 685.27, 1022.46 683.46, 1019.01 681.67 C 1015.56 679.89, 1012.70 680.31, 1006.92 680.62 C 1001.14 680.93, 997.56 681.85, 990.10 683.23 C 982.65 684.60, 977.79 686.04, 969.65 687.47 C 961.51 688.90, 956.57 689.96, 949.40 690.39 C 942.23 690.82, 938.78 690.52, 933.80 689.62 C 928.83 688.71, 926.85 687.43, 924.53 685.88 C 922.21 684.33, 922.15 683.26, 922.20 681.86 C 922.26 680.46, 922.90 679.71, 924.81 678.91 C 926.73 678.10, 928.57 677.45, 931.79 677.85 C 935.01 678.24, 937.54 678.37, 940.92 680.86 C 944.29 683.35, 946.48 685.57, 948.68 690.29 C 950.88 695.00, 951.74 698.49, 951.93 704.44 C 952.13 710.39, 951.78 713.96, 949.65 720.02 C 947.51 726.08, 945.72 729.60, 941.25 734.74 C 936.78 739.89, 933.64 742.34, 927.29 745.75 C 920.94 749.15, 916.45 750.48, 909.51 751.77 C 902.57 753.05, 898.46 753.07, 892.60 752.16 C 886.74 751.25, 883.94 749.96, 880.21 747.22 C 876.48 744.47, 874.99 742.44, 873.96 738.43 C 872.94 734.41, 873.02 731.92, 875.08 727.13 C 877.15 722.34, 879.38 719.27, 884.30 714.50 C 889.21 709.72, 893.05 707.16, 899.68 703.26 C 906.30 699.35, 910.82 697.70, 917.41 694.97 C 923.99 692.24, 927.82 691.42, 932.61 689.61 C 937.40 687.80, 939.60 687.59, 941.36 685.93 C 943.12 684.27, 943.10 682.77, 941.41 681.32 C 939.71 679.87, 937.50 679.58, 932.87 678.67 C 928.25 677.76, 924.87 677.53, 918.29 676.79 C 911.71 676.05, 907.57 675.66, 899.98 674.99 C 892.39 674.33, 887.85 673.69, 880.33 673.47 C 872.81 673.25, 869.13 673.38, 862.37 673.88 C 855.61 674.38, 852.16 674.70, 846.53 675.97 C 840.89 677.24, 838.25 677.40, 834.19 680.21 C 830.13 683.03, 828.51 685.81, 826.22 690.05 C 823.93 694.30, 823.39 697.50, 822.75 701.44 C 822.11 705.39, 822.44 708.07, 823.01 709.77 C 823.58 711.47, 824.82 711.44, 825.59 709.94"
    style="stroke: white; fill: white;" />
  <path
    d="M 1288.80,551.64 C 1287.97 552.97, 1287.40 554.70, 1286.89 558.76 C 1286.38 562.81, 1286.68 565.01, 1286.26 571.91 C 1285.85 578.81, 1285.63 583.24, 1284.83 593.26 C 1284.02 603.29, 1283.33 609.28, 1282.25 622.03 C 1281.18 634.78, 1280.46 641.86, 1279.45 657.01 C 1278.44 672.16, 1277.94 681.52, 1277.21 697.79 C 1276.48 714.06, 1276.07 723.99, 1275.80 738.38 C 1275.52 752.76, 1275.75 759.79, 1275.82 769.72 C 1275.88 779.65, 1275.78 784.36, 1276.12 788.01 C 1276.45 791.66, 1277.29 791.64, 1277.49 787.98 C 1277.68 784.32, 1277.16 779.63, 1277.07 769.71 C 1276.98 759.79, 1276.78 752.77, 1277.04 738.40 C 1277.30 724.02, 1277.64 714.10, 1278.37 697.84 C 1279.10 681.58, 1279.61 672.23, 1280.68 657.10 C 1281.75 641.96, 1282.51 634.89, 1283.73 622.16 C 1284.94 609.43, 1285.73 603.45, 1286.77 593.44 C 1287.80 583.43, 1288.21 578.98, 1288.90 572.12 C 1289.59 565.26, 1289.79 563.16, 1290.23 559.15 C 1290.67 555.14, 1291.36 553.58, 1291.08 552.08 C 1290.79 550.57, 1289.64 550.30, 1288.80 551.64"
    style="stroke: white; fill: white;" />
  <path
    d="M 1334.46,613.90 C 1333.89 614.18, 1333.19 613.17, 1332.75 615.47 C 1332.31 617.76, 1332.59 619.23, 1332.27 625.37 C 1331.94 631.51, 1331.61 635.83, 1331.12 646.17 C 1330.64 656.51, 1330.33 663.97, 1329.86 677.08 C 1329.39 690.19, 1329.10 698.08, 1328.77 711.70 C 1328.44 725.33, 1328.44 733.14, 1328.19 745.20 C 1327.93 757.27, 1327.78 763.44, 1327.51 772.03 C 1327.24 780.61, 1326.86 783.46, 1326.84 788.12 C 1326.83 792.78, 1327.17 793.83, 1327.42 795.31 C 1327.68 796.78, 1327.96 795.45, 1328.11 795.50 C 1328.26 795.54, 1327.99 795.59, 1328.19 795.55 C 1328.40 795.51, 1328.93 796.77, 1329.15 795.29 C 1329.37 793.81, 1329.28 792.78, 1329.30 788.13 C 1329.32 783.48, 1329.18 780.64, 1329.25 772.06 C 1329.32 763.48, 1329.45 757.29, 1329.64 745.23 C 1329.82 733.16, 1329.81 725.35, 1330.17 711.74 C 1330.53 698.12, 1330.83 690.23, 1331.44 677.15 C 1332.05 664.06, 1332.43 656.60, 1333.22 646.30 C 1334.02 636.00, 1334.73 631.72, 1335.43 625.64 C 1336.13 619.55, 1336.70 618.18, 1336.72 615.87 C 1336.75 613.56, 1336.02 614.48, 1335.57 614.09 C 1335.11 613.69, 1335.02 613.63, 1334.46 613.90"
    style="stroke: white; fill: white;" />
  <path
    d="M 1262.52,765.29 C 1263.39 765.72, 1263.75 766.32, 1266.35 765.67 C 1268.95 765.02, 1270.60 764.08, 1275.52 762.03 C 1280.45 759.98, 1283.57 758.50, 1290.98 755.42 C 1298.39 752.34, 1303.48 750.57, 1312.57 746.63 C 1321.65 742.69, 1327.01 740.06, 1336.41 735.73 C 1345.81 731.39, 1351.01 729.15, 1359.57 724.94 C 1368.13 720.72, 1372.55 718.60, 1379.21 714.65 C 1385.87 710.70, 1388.75 708.83, 1392.86 705.19 C 1396.97 701.55, 1398.52 699.77, 1399.77 696.46 C 1401.01 693.15, 1400.85 690.78, 1399.10 688.64 C 1397.34 686.51, 1394.93 685.56, 1390.97 685.79 C 1387.02 686.02, 1384.06 687.01, 1379.34 689.78 C 1374.62 692.55, 1371.79 694.63, 1367.37 699.65 C 1362.95 704.67, 1360.28 708.30, 1357.24 714.88 C 1354.20 721.47, 1352.83 725.65, 1352.16 732.58 C 1351.49 739.52, 1351.82 743.44, 1353.90 749.56 C 1355.98 755.68, 1357.97 758.95, 1362.58 763.17 C 1367.18 767.39, 1370.46 769.10, 1376.93 770.65 C 1383.40 772.20, 1387.47 772.00, 1394.92 770.94 C 1402.37 769.87, 1406.70 768.59, 1414.20 765.34 C 1421.69 762.09, 1425.56 759.62, 1432.38 754.67 C 1439.21 749.71, 1442.79 746.04, 1448.34 740.56 C 1453.90 735.08, 1456.40 731.79, 1460.16 727.28 C 1463.93 722.77, 1465.52 720.88, 1467.16 718.02 C 1468.79 715.15, 1468.76 713.99, 1468.35 712.96 C 1467.94 711.93, 1466.73 711.71, 1465.11 712.88 C 1463.48 714.04, 1461.89 715.56, 1460.23 718.78 C 1458.58 721.99, 1458.11 724.71, 1456.84 728.96 C 1455.57 733.20, 1454.83 735.55, 1453.88 739.99 C 1452.93 744.43, 1452.65 746.96, 1452.09 751.16 C 1451.53 755.37, 1451.01 757.79, 1451.09 761.02 C 1451.17 764.26, 1451.52 765.83, 1452.50 767.34 C 1453.48 768.85, 1454.67 769.27, 1455.97 768.57 C 1457.26 767.88, 1458.34 766.89, 1458.98 763.88 C 1459.61 760.86, 1459.12 758.45, 1459.14 753.50 C 1459.15 748.55, 1459.17 744.96, 1459.05 739.13 C 1458.92 733.30, 1458.68 729.82, 1458.51 724.34 C 1458.35 718.86, 1458.23 715.95, 1458.23 711.71 C 1458.23 707.48, 1458.42 705.45, 1458.50 703.16 C 1458.58 700.88, 1458.01 700.63, 1458.63 700.27 C 1459.25 699.91, 1459.70 700.59, 1461.60 701.36 C 1463.51 702.13, 1464.66 703.04, 1468.17 704.12 C 1471.67 705.20, 1474.29 706.01, 1479.11 706.76 C 1483.93 707.50, 1486.75 707.84, 1492.25 707.86 C 1497.76 707.89, 1500.90 707.77, 1506.65 706.89 C 1512.39 706.02, 1515.51 705.36, 1520.96 703.49 C 1526.41 701.63, 1529.05 700.16, 1533.91 697.56 C 1538.77 694.96, 1541.23 693.43, 1545.27 690.50 C 1549.32 687.57, 1551.13 685.83, 1554.14 682.92 C 1557.14 680.01, 1558.71 678.60, 1560.28 675.95 C 1561.85 673.31, 1561.95 671.59, 1561.98 669.68 C 1562.01 667.78, 1561.39 667.32, 1560.44 666.43 C 1559.49 665.55, 1558.60 665.10, 1557.22 665.25 C 1555.84 665.40, 1554.82 665.85, 1553.54 667.19 C 1552.27 668.54, 1551.27 669.28, 1550.83 671.96 C 1550.39 674.64, 1550.61 676.48, 1551.32 680.59 C 1552.04 684.69, 1552.89 687.16, 1554.42 692.50 C 1555.94 697.85, 1557.02 700.84, 1558.95 707.31 C 1560.89 713.78, 1562.11 717.67, 1564.09 724.84 C 1566.07 732.01, 1567.16 736.13, 1568.86 743.18 C 1570.55 750.24, 1571.70 753.79, 1572.56 760.12 C 1573.42 766.45, 1573.73 769.74, 1573.16 774.84 C 1572.60 779.93, 1571.81 782.28, 1569.74 785.58 C 1567.66 788.87, 1566.10 789.78, 1562.78 791.31 C 1559.45 792.84, 1557.17 793.23, 1553.12 793.25 C 1549.07 793.26, 1546.51 792.79, 1542.53 791.38 C 1538.54 789.96, 1536.28 788.72, 1533.18 786.17 C 1530.09 783.62, 1528.58 782.05, 1527.05 778.62 C 1525.52 775.20, 1524.93 773.53, 1525.53 769.04 C 1526.14 764.54, 1527.12 761.84, 1530.07 756.13 C 1533.02 750.42, 1535.14 747.23, 1540.27 740.50 C 1545.39 733.78, 1548.79 730.16, 1555.69 722.50 C 1562.60 714.84, 1566.90 711.07, 1574.78 702.21 C 1582.65 693.35, 1587.22 688.12, 1595.06 678.20 C 1602.90 668.28, 1607.07 662.91, 1613.99 652.60 C 1620.91 642.29, 1624.31 636.54, 1629.68 626.65 C 1635.05 616.77, 1637.43 611.72, 1640.84 603.19 C 1644.24 594.65, 1645.24 590.55, 1646.71 583.97 C 1648.18 577.39, 1648.63 574.39, 1648.19 570.30 C 1647.75 566.21, 1646.60 564.56, 1644.52 563.52 C 1642.44 562.48, 1640.35 562.51, 1637.78 565.09 C 1635.21 567.67, 1634.18 570.00, 1631.67 576.43 C 1629.16 582.87, 1627.66 587.24, 1625.23 597.26 C 1622.80 607.29, 1621.50 613.74, 1619.50 626.54 C 1617.51 639.33, 1616.47 647.27, 1615.25 661.24 C 1614.03 675.21, 1613.74 683.21, 1613.40 696.37 C 1613.05 709.53, 1613.20 716.28, 1613.54 727.03 C 1613.87 737.79, 1614.10 742.70, 1615.08 750.16 C 1616.07 757.61, 1616.37 760.61, 1618.47 764.30 C 1620.57 768.00, 1622.45 769.05, 1625.59 768.63 C 1628.74 768.21, 1630.72 766.05, 1634.19 762.20 C 1637.66 758.36, 1639.34 754.84, 1642.94 749.41 C 1646.55 743.98, 1648.77 740.39, 1652.22 735.03 C 1655.66 729.68, 1657.56 726.21, 1660.15 722.63 C 1662.74 719.05, 1663.67 717.88, 1665.16 717.15 C 1666.65 716.41, 1666.50 717.16, 1667.58 718.94 C 1668.67 720.73, 1669.44 722.29, 1670.60 726.06 C 1671.76 729.83, 1672.13 732.84, 1673.39 737.78 C 1674.66 742.73, 1675.18 746.12, 1676.92 750.80 C 1678.66 755.49, 1679.50 758.16, 1682.08 761.20 C 1684.66 764.25, 1686.48 765.67, 1689.82 766.04 C 1693.16 766.41, 1695.22 765.49, 1698.79 763.06 C 1702.36 760.63, 1704.16 758.24, 1707.67 753.87 C 1711.18 749.50, 1713.17 745.95, 1716.34 741.20 C 1719.50 736.46, 1721.48 733.33, 1723.49 730.16 C 1725.51 726.99, 1725.80 725.46, 1726.41 725.34 C 1727.02 725.21, 1726.36 726.16, 1726.56 729.53 C 1726.76 732.90, 1727.10 736.59, 1727.41 742.18 C 1727.73 747.78, 1727.56 752.09, 1728.12 757.50 C 1728.67 762.90, 1728.73 765.94, 1730.18 769.22 C 1731.64 772.49, 1733.16 773.68, 1735.39 773.87 C 1737.63 774.07, 1739.08 773.06, 1741.36 770.21 C 1743.64 767.35, 1744.51 764.61, 1746.78 759.62 C 1749.06 754.62, 1750.16 751.25, 1752.72 745.25 C 1755.29 739.24, 1756.74 735.41, 1759.60 729.59 C 1762.45 723.77, 1764.25 720.32, 1766.98 716.15 C 1769.71 711.97, 1771.27 710.18, 1773.25 708.70 C 1775.23 707.22, 1775.40 707.44, 1776.89 708.74 C 1778.39 710.03, 1779.14 711.65, 1780.72 715.18 C 1782.30 718.71, 1782.90 721.69, 1784.79 726.39 C 1786.68 731.09, 1787.39 734.25, 1790.16 738.67 C 1792.93 743.09, 1794.78 745.61, 1798.65 748.48 C 1802.52 751.35, 1805.05 752.45, 1809.51 753.03 C 1813.98 753.61, 1816.45 753.20, 1820.98 751.40 C 1825.52 749.60, 1828.10 747.94, 1832.19 744.04 C 1836.28 740.14, 1838.41 737.44, 1841.43 731.91 C 1844.46 726.38, 1845.69 722.59, 1847.33 716.39 C 1848.96 710.20, 1849.46 706.36, 1849.62 700.95 C 1849.78 695.53, 1849.58 692.77, 1848.11 689.34 C 1846.64 685.90, 1845.15 684.33, 1842.28 683.78 C 1839.41 683.22, 1836.95 683.94, 1833.77 686.56 C 1830.59 689.19, 1828.92 691.90, 1826.39 696.90 C 1823.86 701.90, 1822.57 705.20, 1821.11 711.56 C 1819.66 717.93, 1818.99 721.86, 1819.13 728.73 C 1819.26 735.59, 1819.91 739.72, 1821.77 745.91 C 1823.64 752.10, 1824.99 755.21, 1828.45 759.67 C 1831.92 764.14, 1834.16 766.19, 1839.09 768.24 C 1844.01 770.30, 1847.18 770.49, 1853.08 769.95 C 1858.99 769.41, 1862.40 768.34, 1868.62 765.53 C 1874.84 762.71, 1878.21 760.43, 1884.19 755.87 C 1890.17 751.31, 1893.25 748.01, 1898.52 742.72 C 1903.79 737.43, 1906.61 733.72, 1910.55 729.41 C 1914.49 725.10, 1916.46 723.18, 1918.22 721.15 C 1919.98 719.12, 1919.50 718.40, 1919.35 719.27 C 1919.21 720.14, 1918.31 721.72, 1917.50 725.50 C 1916.69 729.29, 1916.15 732.86, 1915.32 738.20 C 1914.50 743.53, 1913.58 747.32, 1913.37 752.18 C 1913.17 757.03, 1913.04 760.07, 1914.31 762.48 C 1915.59 764.90, 1917.25 765.55, 1919.74 764.25 C 1922.24 762.94, 1923.28 760.78, 1926.78 755.96 C 1930.28 751.13, 1932.46 747.24, 1937.23 740.13 C 1942.00 733.02, 1945.05 727.72, 1950.63 720.40 C 1956.21 713.07, 1959.63 708.98, 1965.13 703.51 C 1970.62 698.05, 1973.61 695.92, 1978.10 693.09 C 1982.58 690.27, 1984.43 689.87, 1987.54 689.39 C 1990.65 688.91, 1991.18 689.87, 1993.65 690.69 C 1996.12 691.51, 1998.39 693.37, 1999.89 693.49 C 2001.38 693.61, 2002.13 692.60, 2001.14 691.30 C 2000.15 689.99, 1997.77 687.98, 1994.94 686.97 C 1992.10 685.96, 1990.59 685.45, 1986.94 686.24 C 1983.30 687.04, 1981.39 687.82, 1976.71 690.96 C 1972.03 694.10, 1969.12 696.33, 1963.56 701.95 C 1957.99 707.56, 1954.56 711.70, 1948.86 719.04 C 1943.17 726.38, 1939.99 731.64, 1935.07 738.65 C 1930.15 745.67, 1927.70 749.50, 1924.26 754.11 C 1920.83 758.72, 1919.28 760.23, 1917.91 761.72 C 1916.55 763.20, 1917.47 763.37, 1917.44 761.53 C 1917.42 759.68, 1917.34 757.02, 1917.79 752.48 C 1918.24 747.95, 1918.90 744.14, 1919.68 738.86 C 1920.47 733.58, 1921.44 730.14, 1921.71 726.08 C 1921.98 722.02, 1922.18 720.07, 1921.02 718.56 C 1919.86 717.05, 1918.43 716.75, 1915.89 718.53 C 1913.36 720.31, 1912.17 722.97, 1908.34 727.46 C 1904.51 731.95, 1901.87 735.67, 1896.74 740.96 C 1891.61 746.26, 1888.54 749.49, 1882.71 753.92 C 1876.87 758.36, 1873.53 760.50, 1867.56 763.16 C 1861.58 765.82, 1858.31 766.71, 1852.83 767.21 C 1847.35 767.71, 1844.60 767.51, 1840.16 765.67 C 1835.72 763.83, 1833.79 762.10, 1830.62 758.00 C 1827.46 753.89, 1826.10 751.00, 1824.34 745.14 C 1822.58 739.28, 1821.90 735.26, 1821.84 728.69 C 1821.78 722.11, 1822.49 718.30, 1824.03 712.27 C 1825.57 706.24, 1827.07 703.09, 1829.54 698.55 C 1832.01 694.00, 1833.94 691.85, 1836.38 689.53 C 1838.82 687.22, 1840.07 686.75, 1841.73 686.98 C 1843.40 687.20, 1843.77 687.87, 1844.70 690.65 C 1845.63 693.43, 1846.43 695.88, 1846.39 700.88 C 1846.34 705.88, 1845.99 709.74, 1844.48 715.66 C 1842.98 721.58, 1841.74 725.27, 1838.85 730.48 C 1835.96 735.70, 1833.85 738.19, 1830.03 741.75 C 1826.22 745.31, 1823.77 746.71, 1819.76 748.29 C 1815.74 749.86, 1813.77 750.13, 1809.97 749.62 C 1806.17 749.10, 1804.09 748.27, 1800.75 745.70 C 1797.40 743.13, 1795.71 740.93, 1793.26 736.78 C 1790.81 732.63, 1790.28 729.62, 1788.52 724.94 C 1786.76 720.26, 1786.39 717.23, 1784.46 713.40 C 1782.54 709.58, 1781.53 707.37, 1778.90 705.82 C 1776.26 704.28, 1774.20 703.96, 1771.28 705.68 C 1768.36 707.40, 1767.15 709.89, 1764.29 714.41 C 1761.42 718.94, 1759.85 722.39, 1756.96 728.30 C 1754.07 734.21, 1752.55 738.03, 1749.84 743.97 C 1747.13 749.92, 1745.80 753.24, 1743.42 758.01 C 1741.03 762.78, 1739.51 765.12, 1737.94 767.84 C 1736.36 770.56, 1736.31 771.61, 1735.53 771.62 C 1734.75 771.63, 1734.70 770.80, 1734.04 767.89 C 1733.37 764.99, 1732.73 762.27, 1732.21 757.08 C 1731.68 751.89, 1731.79 747.58, 1731.43 741.94 C 1731.07 736.30, 1731.38 732.57, 1730.39 728.89 C 1729.39 725.20, 1728.48 723.73, 1726.47 723.52 C 1724.46 723.30, 1722.98 724.69, 1720.33 727.82 C 1717.68 730.94, 1716.33 734.40, 1713.23 739.15 C 1710.12 743.90, 1708.14 747.43, 1704.82 751.59 C 1701.49 755.75, 1699.52 757.84, 1696.60 759.94 C 1693.69 762.05, 1692.54 762.36, 1690.25 762.12 C 1687.96 761.87, 1687.08 761.25, 1685.15 758.72 C 1683.22 756.19, 1682.15 753.86, 1680.60 749.47 C 1679.06 745.09, 1678.58 741.75, 1677.41 736.80 C 1676.24 731.84, 1676.14 728.76, 1674.76 724.71 C 1673.37 720.65, 1672.63 718.59, 1670.50 716.51 C 1668.37 714.44, 1666.71 713.51, 1664.09 714.33 C 1661.48 715.15, 1660.32 716.79, 1657.42 720.59 C 1654.51 724.39, 1652.99 727.93, 1649.56 733.33 C 1646.12 738.74, 1643.82 742.28, 1640.25 747.62 C 1636.68 752.97, 1634.77 756.43, 1631.73 760.06 C 1628.69 763.69, 1627.26 765.15, 1625.04 765.77 C 1622.82 766.39, 1622.24 766.32, 1620.62 763.14 C 1619.00 759.97, 1618.06 757.12, 1616.94 749.89 C 1615.82 742.66, 1615.47 737.68, 1615.03 726.98 C 1614.59 716.28, 1614.42 709.53, 1614.74 696.41 C 1615.05 683.28, 1615.34 675.29, 1616.60 661.36 C 1617.86 647.44, 1618.91 639.50, 1621.02 626.78 C 1623.13 614.06, 1624.52 607.62, 1627.15 597.75 C 1629.78 587.89, 1631.54 583.54, 1634.19 577.47 C 1636.84 571.40, 1638.54 569.80, 1640.39 567.40 C 1642.24 565.01, 1642.47 564.85, 1643.45 565.48 C 1644.43 566.11, 1645.07 566.94, 1645.30 570.56 C 1645.53 574.17, 1645.82 577.13, 1644.61 583.54 C 1643.40 589.94, 1642.50 594.09, 1639.26 602.57 C 1636.01 611.05, 1633.67 616.10, 1628.38 625.95 C 1623.10 635.80, 1619.71 641.55, 1612.83 651.82 C 1605.94 662.10, 1601.79 667.45, 1593.95 677.32 C 1586.11 687.19, 1581.54 692.38, 1573.63 701.18 C 1565.71 709.98, 1561.40 713.71, 1554.38 721.31 C 1547.37 728.91, 1543.89 732.46, 1538.56 739.18 C 1533.23 745.89, 1530.97 749.01, 1527.74 754.89 C 1524.51 760.77, 1523.22 763.56, 1522.43 768.58 C 1521.64 773.61, 1522.13 775.91, 1523.79 780.01 C 1525.46 784.10, 1527.26 786.06, 1530.75 789.05 C 1534.25 792.05, 1536.77 793.40, 1541.25 794.98 C 1545.73 796.56, 1548.56 797.08, 1553.17 796.97 C 1557.78 796.86, 1560.45 796.40, 1564.30 794.45 C 1568.15 792.51, 1570.10 791.10, 1572.43 787.24 C 1574.76 783.37, 1575.43 780.62, 1575.95 775.12 C 1576.48 769.63, 1576.01 766.27, 1575.06 759.76 C 1574.11 753.26, 1572.92 749.73, 1571.21 742.62 C 1569.50 735.50, 1568.41 731.40, 1566.51 724.19 C 1564.60 716.97, 1563.41 713.05, 1561.69 706.54 C 1559.96 700.03, 1558.99 696.95, 1557.88 691.64 C 1556.78 686.34, 1556.39 683.74, 1556.16 680.00 C 1555.93 676.27, 1556.40 674.87, 1556.73 672.96 C 1557.07 671.05, 1557.45 671.30, 1557.83 670.46 C 1558.22 669.62, 1558.46 669.26, 1558.67 668.76 C 1558.87 668.25, 1558.92 667.91, 1558.84 667.95 C 1558.77 667.99, 1558.86 667.86, 1558.29 668.94 C 1557.72 670.03, 1557.39 671.11, 1556.00 673.37 C 1554.61 675.63, 1553.87 677.34, 1551.33 680.23 C 1548.78 683.12, 1547.05 684.90, 1543.27 687.83 C 1539.50 690.75, 1537.10 692.30, 1532.45 694.86 C 1527.79 697.43, 1525.24 698.86, 1519.99 700.65 C 1514.74 702.44, 1511.73 703.07, 1506.20 703.83 C 1500.67 704.58, 1497.60 704.65, 1492.34 704.42 C 1487.07 704.19, 1484.41 703.73, 1479.89 702.68 C 1475.38 701.63, 1473.23 700.35, 1469.78 699.16 C 1466.33 697.97, 1465.18 696.98, 1462.64 696.75 C 1460.11 696.52, 1458.76 696.83, 1457.10 698.01 C 1455.44 699.19, 1454.87 699.91, 1454.34 702.66 C 1453.81 705.41, 1454.30 707.42, 1454.45 711.78 C 1454.61 716.14, 1454.93 718.98, 1455.12 724.45 C 1455.31 729.92, 1455.50 733.37, 1455.40 739.14 C 1455.30 744.91, 1455.01 748.49, 1454.61 753.30 C 1454.20 758.12, 1453.43 760.37, 1453.39 763.23 C 1453.34 766.09, 1453.93 766.92, 1454.38 767.61 C 1454.83 768.30, 1455.27 767.99, 1455.65 766.68 C 1456.04 765.37, 1456.17 764.08, 1456.31 761.06 C 1456.44 758.05, 1456.00 755.65, 1456.33 751.62 C 1456.65 747.59, 1456.89 745.14, 1457.93 740.93 C 1458.98 736.71, 1460.02 734.49, 1461.54 730.56 C 1463.06 726.62, 1464.22 724.38, 1465.53 721.25 C 1466.85 718.13, 1467.76 716.65, 1468.11 714.92 C 1468.45 713.19, 1468.07 712.39, 1467.27 712.62 C 1466.46 712.85, 1465.94 713.47, 1464.09 716.06 C 1462.24 718.65, 1461.51 721.01, 1458.04 725.59 C 1454.57 730.17, 1452.12 733.49, 1446.74 738.96 C 1441.36 744.43, 1437.82 748.07, 1431.13 752.95 C 1424.45 757.83, 1420.64 760.21, 1413.34 763.35 C 1406.03 766.49, 1401.77 767.66, 1394.60 768.65 C 1387.43 769.64, 1383.57 769.75, 1377.50 768.29 C 1371.43 766.83, 1368.50 765.25, 1364.25 761.35 C 1360.00 757.44, 1358.16 754.47, 1356.24 748.77 C 1354.31 743.07, 1353.96 739.39, 1354.63 732.83 C 1355.30 726.28, 1356.61 722.23, 1359.60 715.99 C 1362.59 709.76, 1365.27 706.26, 1369.57 701.64 C 1373.87 697.02, 1376.74 695.25, 1381.10 692.89 C 1385.46 690.54, 1388.22 690.32, 1391.36 689.87 C 1394.51 689.43, 1395.75 689.59, 1396.81 690.66 C 1397.88 691.73, 1397.84 692.67, 1396.70 695.20 C 1395.56 697.73, 1394.84 699.77, 1391.13 703.31 C 1387.42 706.85, 1384.63 708.90, 1378.15 712.90 C 1371.68 716.90, 1367.26 719.07, 1358.76 723.31 C 1350.26 727.55, 1345.05 729.79, 1335.65 734.08 C 1326.26 738.37, 1320.90 740.98, 1311.77 744.76 C 1302.65 748.55, 1297.54 750.23, 1290.03 753.01 C 1282.53 755.78, 1279.28 756.98, 1274.26 758.63 C 1269.23 760.28, 1267.37 760.27, 1264.92 761.24 C 1262.48 762.22, 1262.51 762.71, 1262.03 763.51 C 1261.55 764.32, 1261.66 764.85, 1262.52 765.29"
    style="stroke: white; fill: white;" />
</svg>